<svg width="500" height="500" viewBox="0 0 500 500" fill="none" xmlns="http://www.w3.org/2000/svg">
<rect width="500" height="500" fill="white"/>
<path d="M434.359 141.136L357.873 64.6408C357.036 63.8036 356.042 63.1395 354.949 62.6863C353.855 62.2332 352.683 62 351.499 62C350.315 62 349.143 62.2332 348.049 62.6863C346.956 63.1395 345.962 63.8036 345.125 64.6408L64.641 345.117C63.8037 345.953 63.1395 346.947 62.6864 348.041C62.2332 349.134 62 350.307 62 351.49C62 352.674 62.2332 353.846 62.6864 354.94C63.1395 356.034 63.8037 357.027 64.641 357.864L141.127 434.359C141.964 435.196 142.958 435.861 144.051 436.314C145.145 436.767 146.317 437 147.501 437C148.685 437 149.857 436.767 150.951 436.314C152.044 435.861 153.038 435.196 153.875 434.359L434.359 153.883C435.196 153.047 435.86 152.053 436.314 150.959C436.767 149.866 437 148.693 437 147.51C437 146.326 436.767 145.154 436.314 144.06C435.86 142.966 435.196 141.973 434.359 141.136V141.136ZM173.005 389.734L150.603 367.335C151.634 364.423 154.753 362.827 163.102 360.047C173.173 356.684 188.403 351.614 188.403 332.369C188.403 327.05 190.341 325.475 201.362 321.796C211.433 318.441 226.647 313.37 226.647 294.126C226.647 288.807 228.586 287.224 239.607 283.544C249.678 280.19 264.891 275.118 264.891 255.874C264.891 250.555 266.829 248.981 277.849 245.301C287.921 241.946 303.133 236.876 303.133 217.631C303.133 212.312 305.072 210.729 316.11 207.049C326.182 203.695 341.394 198.624 341.394 179.379C341.394 174.06 343.332 172.486 354.353 168.806C361.905 166.963 368.794 163.051 374.246 157.51L389.743 173.005L173.005 389.734ZM348.647 151.709C338.575 155.063 323.363 160.134 323.363 179.379C323.363 184.698 321.425 186.272 310.403 189.952C300.332 193.306 285.102 198.377 285.102 217.631C285.102 222.949 283.164 224.524 272.143 228.204C262.072 231.558 246.859 236.629 246.859 255.874C246.859 261.193 244.921 262.767 233.9 266.447C223.828 269.801 208.616 274.872 208.616 294.126C208.616 299.445 206.678 301.019 195.657 304.699C185.586 308.053 170.373 313.124 170.373 332.369C170.373 337.687 168.435 339.262 157.414 342.942C149.858 344.786 142.965 348.698 137.508 354.24L109.259 325.995L325.995 109.266L361.145 144.413C360.117 147.326 356.996 148.922 348.647 151.709ZM147.501 415.238L83.7619 351.49L96.5107 338.743L160.257 402.482L147.501 415.238ZM402.488 160.257L338.743 96.5178L351.499 83.7618L415.238 147.51L402.488 160.257Z" fill="#403F3F"/>
</svg>
